<svg width="15" height="15" viewBox="0 0 15 15" fill="none" xmlns="http://www.w3.org/2000/svg">
<path id="Vector" d="M7.34821 0.000201799C3.72326 0.00325997 0.390815 3.0287 0.0488183 6.64773C-0.318172 9.73013 1.41375 12.9519 4.2405 14.2612C6.86563 15.5463 10.2351 15.1396 12.4123 13.1608C14.6275 11.2408 15.5955 7.96818 14.6224 5.17616C13.6971 2.32769 10.9661 0.14697 7.95835 0.0149816C7.75524 0.00167814 7.55169 -0.000812183 7.34821 0.000201799ZM7.4967 2.35047C10.1663 2.2727 12.6137 4.63101 12.6451 7.30599C12.7605 9.75311 10.925 12.1561 8.49022 12.5664C6.13417 13.0391 3.52108 11.6753 2.6964 9.38426C1.8086 7.1187 2.71436 4.25369 4.87535 3.0646C5.66547 2.59992 6.58022 2.34933 7.4967 2.35047ZM5.64276 4.19005L4.19125 5.6439L6.05908 7.51476L4.22499 9.35182L5.65346 10.7826L7.48759 8.94553L9.35651 10.8175L10.808 9.36362L8.93909 7.49169L10.7733 5.65456L9.34478 4.22379C8.73339 4.83616 8.122 5.44853 7.51062 6.0609L5.64276 4.19006V4.19005Z" fill="white"/>
</svg>
